<svg xmlns="http://www.w3.org/2000/svg" xmlns:xlink="http://www.w3.org/1999/xlink" width="1099" height="686">
  <defs>
    <linearGradient id="a" x1="100%" x2="4.743%" y1="100%" y2="15.684%">
      <stop offset="0%" stop-color="#FFF" stop-opacity=".19"/>
      <stop offset="59.057%" stop-color="#FFF" stop-opacity=".203"/>
      <stop offset="98.395%" stop-color="#FFF" stop-opacity=".002"/>
    </linearGradient>
    <linearGradient id="b" x1="50%" x2="50%" y1="100%" y2="1.969%">
      <stop offset="0%" stop-color="#D4E3EB" stop-opacity=".797"/>
      <stop offset="100%" stop-color="#FFF"/>
    </linearGradient>
    <path id="c" d="M0 3.49c0 3.071 2.27 6.805 5.072 8.34 2.8 1.536 5.071.291 5.071-2.78 0-3.07-2.27-6.804-5.071-8.34C4.258.265 3.488.054 2.807.054 1.143.053 0 1.313 0 3.491"/>
    <path id="e" d="M0 3.49c0 3.071 2.27 6.805 5.072 8.34 2.8 1.536 5.071.291 5.071-2.78 0-3.07-2.27-6.804-5.071-8.34C4.258.265 3.488.054 2.807.054 1.143.053 0 1.313 0 3.491"/>
    <linearGradient id="g" x1="95.641%" x2="29.892%" y1="83.151%" y2="3.595%">
      <stop offset="0%" stop-color="#FFF" stop-opacity=".537"/>
      <stop offset="100%" stop-color="#FFF" stop-opacity="0"/>
    </linearGradient>
    <linearGradient id="h" x1="100%" x2="4.743%" y1="100%" y2="15.684%">
      <stop offset="0%" stop-color="#FFF" stop-opacity=".19"/>
      <stop offset="59.057%" stop-color="#FFF" stop-opacity=".514"/>
      <stop offset="100%" stop-color="#FFF" stop-opacity=".16"/>
    </linearGradient>
    <path id="i" d="M0 5.3C0 9.96 3.303 15.63 7.377 17.96c4.074 2.331 7.377.441 7.377-4.22 0-4.662-3.303-10.331-7.377-12.662C6.193.4 5.074.08 4.082.08 1.662.08 0 1.992 0 5.3"/>
    <path id="k" d="M0 5.511C0 10.36 3.51 16.255 7.838 18.68c4.329 2.424 7.838.459 7.838-4.39 0-4.848-3.51-10.744-7.838-13.168C6.58.417 5.391.084 4.338.084 1.765.084 0 2.072 0 5.51"/>
    <linearGradient id="m" x1="50%" x2="50%" y1="100%" y2="1.969%">
      <stop offset="0%" stop-color="#6FA4C2"/>
      <stop offset="100%" stop-color="#CFDCE8"/>
    </linearGradient>
    <linearGradient id="n" x1="50.065%" x2="52.004%" y1="96.844%" y2="1.969%">
      <stop offset="0%" stop-color="#D7E6EE"/>
      <stop offset="100%" stop-color="#FEFEFF"/>
    </linearGradient>
    <linearGradient id="o" x1="50%" x2="50%" y1="100%" y2="1.969%">
      <stop offset="0%" stop-color="#D4E3EB"/>
      <stop offset="100%" stop-color="#FFF"/>
    </linearGradient>
    <linearGradient id="p" x1="50%" x2="0%" y1="0%" y2="112.195%">
      <stop offset="0%" stop-color="#D6157E"/>
      <stop offset="100%" stop-color="#3037D3"/>
    </linearGradient>
    <linearGradient id="q" x1="50%" x2="50%" y1="100%" y2="1.969%">
      <stop offset="0%" stop-color="#EAF4F9"/>
      <stop offset="100%" stop-color="#FFF"/>
    </linearGradient>
  </defs>
  <g fill="none" fill-rule="evenodd">
    <path fill="url(#a)" d="M381.892 23v89.24l2.506 1.438V24.436L381.892 23zM347.31 65.199l2.38 1.365V31.748l-2.38-1.365v34.816zm-14.295-16.431l2.38 1.365V31.785l-2.38-1.365v18.348zm-5.015-6.9l2.505 1.436V33.007L328 31.57v10.298zm43.864 49.177l2.505 1.436V34.132l-2.505-1.436v58.349zm15.043 14.632l2.505 1.436V36.75l-2.505-1.437v70.364zM337.78 48.412l2.38 1.366V37.605l-2.38-1.365v12.172zm14.295 15.216l2.38 1.365v-26.21l-2.38-1.364v26.209zm14.775 13.387l2.505 1.436V42.412l-2.505-1.436v36.039zm-24.306-30.089l2.381 1.365v-3.736l-2.38-1.365v3.736zm54.392 60.211l2.505 1.437V46.792l-2.505-1.436v61.781zm-20.057-23.514l2.505 1.437V47.305l-2.505-1.437v37.755zm65.186 74.275l2.505 1.437V47.785l-2.505-1.437v111.55zM356.82 60.11l2.505 1.436v-13.73l-2.505-1.436v13.73zm35.1 39.862l2.506 1.436v-53.2l-2.506-1.437v53.2zm35.1 39.003l2.507 1.437V49.456l-2.506-1.436v90.955zm-65.186-77.707l2.506 1.437V52.408l-2.506-1.437v10.297zm75.215 84.317l2.505 1.436V54.349l-2.505-1.437v92.673zm-15.043-18.924l2.506 1.437V56.02l-2.506-1.437v72.08zm25.072 28.106l2.505 1.437V56.666l-2.505-1.437v99.538zm-15.043-18.922l2.505 1.436V58.338l-2.505-1.437v78.944zm-20.057-27.805l2.505 1.437V63.14l-2.505-1.436v46.336zm-10.03-15.19l2.506 1.437V66.829l-2.505-1.436V92.85zm50.144 54.495l2.506 1.437V69.839l-2.506-1.437v78.943zm-35.1-42.436l2.505 1.436V72.023l-2.505-1.437v34.323zM406.964 88.86l2.506 1.437v-13.73l-2.506-1.436v13.73zm55.158 59.086l2.505 1.437V80.738l-2.505-1.437v68.646zm-5.014-8.024l2.506 1.437V83.01l-2.506-1.436v58.348zm10.029 3.177l2.504 1.436v-53.2l-2.504-1.437V143.1zm40.114 40.163l2.506 1.437V97.176l-2.506-1.437v87.524zm-5.015-7.165l2.506 1.436V98.591l-2.506-1.436v78.943zm-30.085-42.136l2.505 1.437v-29.175l-2.505-1.437v29.175zm20.057 21.798l2.505 1.436v-49.768l-2.505-1.437v49.769zm-15.043-24.071l2.505 1.437v-18.879l-2.505-1.436v18.878zm20.057 18.366l2.505 1.435v-32.606l-2.505-1.437v32.608zm15.043 17.206l2.506 1.436v-49.769l-2.506-1.436v49.769zm-30.086-36.13l2.506 1.437v-12.013l-2.506-1.436v12.012zm5.014.302l2.506 1.436v-6.865l-2.506-1.436v6.865zm60.173 57.67l2.505 1.437v-53.202l-2.505-1.436v53.2zm-30.087-35.27l2.506 1.436v-17.161l-2.506-1.437v17.161zm5.015 5.45l2.505 1.435v-22.31l-2.505-1.436v22.31zm5.014 4.59l2.506 1.437v-25.743l-2.506-1.437v25.744zm15.044 10.342l2.505 1.437v-29.175l-2.505-1.437v29.175zm15.043 16.349L559.9 192v-44.62l-2.505-1.436v44.62zM532.323 161.6l2.505 1.436v-15.445l-2.505-1.436V161.6zm20.057 21.798l2.506 1.436v-36.04l-2.506-1.436v36.04zm-15.043-22.356l2.506 1.437v-8.58l-2.506-1.437v8.58zm25.072 21.241l2.505 1.437v-22.31l-2.505-1.436v22.31zm5.014-1.414l2.505 1.436v-13.73l-2.505-1.436v13.73zm5.015.3l2.505 1.437v-8.58l-2.505-1.438v8.582zm5.014 2.018l2.505 1.436v-6.865l-2.505-1.436v6.865zm5.014 2.017l2.505 1.436v-5.148l-2.505-1.437v5.149zm5.015 2.017l2.505 1.436v-3.432l-2.505-1.436v3.432zm5.014 2.875l2.505 1.437V188.1l-2.505-1.436v3.432z" opacity=".4" transform="translate(-50)"/>
    <g opacity=".5">
      <path fill="url(#b)" d="M.008 32.12V2.773c0-2.122 1.275-3.1 2.848-2.18l41.08 22.93c1.57.92 2.846 3.387 2.846 5.509v39.43c0 2.122-1.276 3.096-2.847 2.178L27.71 61.71l-5.267 4.03-5.266-10.185-14.32-7.847c-1.573-.92-2.848-3.384-2.848-5.506v-5.647" transform="translate(437 25)"/>
      <path fill="#8B4298" d="M452 43.332c0 3.184-2.462 4.475-5.5 2.883-3.038-1.592-5.5-5.465-5.5-8.65 0-3.184 2.462-4.475 5.5-2.883 3.038 1.592 5.5 5.465 5.5 8.65" opacity=".9"/>
      <g transform="translate(441.423 34.806)">
        <mask id="d" fill="#fff">
          <use xlink:href="#c"/>
        </mask>
        <path fill="#FFF" d="M8.518 12.084c-.08-.087-1.966-2.146-3.446-2.957-1.481-.812-3.368-.821-3.447-.821-.157 0-.256.12-.256.313v.508c0 .28.207.62.463.76l3.397 2.79c.256.14 3.545.789 3.545.508v-.507c0-.192-.099-.422-.256-.594M3.22 5.575V4.56c0-1.119.83-1.574 1.852-1.015 1.02.56 1.85 1.926 1.85 3.045v1.014c0 1.12-.83 1.575-1.85 1.015C4.05 8.06 3.22 6.694 3.22 5.575" mask="url(#d)"/>
      </g>
      <g opacity=".8">
        <path fill="#8998AF" d="M456.405 43.506a.79.79 0 0 1-.273-1.124.893.893 0 0 1 1.19-.257L478.21 53.53a.79.79 0 0 1 .271 1.124c-.253.382-.785.497-1.189.258l-20.887-11.405z" opacity=".4"/>
        <path fill="#8B4298" d="M456.405 59.832a.79.79 0 0 1-.273-1.124.893.893 0 0 1 1.19-.257l17.146 9.41a.79.79 0 0 1 .271 1.124c-.253.382-.785.496-1.189.257l-17.145-9.41z"/>
        <path fill="#8998AF" d="M456.422 65.284c-.41-.23-.544-.731-.3-1.119.244-.386.774-.513 1.184-.282l12.481 6.912c.41.23.544.732.3 1.119-.245.387-.775.513-1.184.283l-12.481-6.913z" opacity=".4"/>
        <path fill="#8B4298" d="M456.399 48.945a.79.79 0 0 1-.263-1.127c.256-.379.79-.49 1.191-.248l20.68 11.643a.79.79 0 0 1 .263 1.126.893.893 0 0 1-1.193.25L456.4 48.944z"/>
        <path fill="#8998AF" d="M472.863 74.31a.79.79 0 0 1-.263-1.127c.256-.38.79-.49 1.191-.248l4.764 2.63a.79.79 0 0 1 .263 1.126.893.893 0 0 1-1.193.25l-4.762-2.63zM456.407 53.974a.79.79 0 0 1-.276-1.124.89.89 0 0 1 1.188-.26l13.11 7.493a.79.79 0 0 1 .276 1.124c-.25.382-.783.499-1.188.26l-13.11-7.493zM456.407 70.3a.79.79 0 0 1-.276-1.125.89.89 0 0 1 1.188-.26l13.153 7.386a.79.79 0 0 1 .276 1.124c-.251.382-.784.5-1.189.26L456.407 70.3z" opacity=".4"/>
      </g>
    </g>
    <g opacity=".5">
      <path fill="url(#b)" d="M.008 32.12V2.773c0-2.122 1.275-3.1 2.848-2.18l41.08 22.93c1.57.92 2.846 3.387 2.846 5.509v39.43c0 2.122-1.276 3.096-2.847 2.178L27.71 61.71l-5.267 4.03-5.266-10.185-14.32-7.847c-1.573-.92-2.848-3.384-2.848-5.506v-5.647" transform="translate(416 426)"/>
      <path fill="#8B4298" d="M431 444.332c0 3.184-2.462 4.475-5.5 2.883-3.038-1.592-5.5-5.465-5.5-8.65 0-3.184 2.462-4.475 5.5-2.883 3.038 1.592 5.5 5.465 5.5 8.65" opacity=".9"/>
      <g transform="translate(420.423 435.806)">
        <mask id="f" fill="#fff">
          <use xlink:href="#e"/>
        </mask>
        <path fill="#FFF" d="M8.518 12.084c-.08-.087-1.966-2.146-3.446-2.957-1.481-.812-3.368-.821-3.447-.821-.157 0-.256.12-.256.313v.508c0 .28.207.62.463.76l3.397 2.79c.256.14 3.545.789 3.545.508v-.507c0-.192-.099-.422-.256-.594M3.22 5.575V4.56c0-1.119.83-1.574 1.852-1.015 1.02.56 1.85 1.926 1.85 3.045v1.014c0 1.12-.83 1.575-1.85 1.015C4.05 8.06 3.22 6.694 3.22 5.575" mask="url(#f)"/>
      </g>
      <g opacity=".8">
        <path fill="#8998AF" d="M435.405 444.506a.79.79 0 0 1-.273-1.124.893.893 0 0 1 1.19-.257l20.888 11.404a.79.79 0 0 1 .271 1.124c-.253.382-.785.497-1.189.258l-20.887-11.405z" opacity=".4"/>
        <path fill="#8B4298" d="M435.405 460.832a.79.79 0 0 1-.273-1.124.893.893 0 0 1 1.19-.257l17.146 9.41a.79.79 0 0 1 .271 1.124c-.253.382-.785.496-1.189.257l-17.145-9.41z"/>
        <path fill="#8998AF" d="M435.422 466.284c-.41-.23-.544-.731-.3-1.119.244-.386.774-.513 1.184-.282l12.481 6.912c.41.23.544.732.3 1.119-.245.387-.775.513-1.184.283l-12.481-6.913z" opacity=".4"/>
        <path fill="#8B4298" d="M435.399 449.945a.79.79 0 0 1-.263-1.127c.256-.379.79-.49 1.191-.248l20.68 11.643a.79.79 0 0 1 .263 1.126.893.893 0 0 1-1.193.25L435.4 449.944z"/>
        <path fill="#8998AF" d="M451.863 475.31a.79.79 0 0 1-.263-1.127c.256-.38.79-.49 1.191-.248l4.764 2.63a.79.79 0 0 1 .263 1.126.893.893 0 0 1-1.193.25l-4.762-2.63zM435.407 454.974a.79.79 0 0 1-.276-1.124.89.89 0 0 1 1.188-.26l13.11 7.493a.79.79 0 0 1 .276 1.124c-.25.382-.783.499-1.188.26l-13.11-7.493zM435.407 471.3a.79.79 0 0 1-.276-1.125.89.89 0 0 1 1.188-.26l13.153 7.386a.79.79 0 0 1 .276 1.124c-.251.382-.784.5-1.189.26l-13.152-7.385z" opacity=".4"/>
      </g>
    </g>
    <g fill="#FFF" fill-opacity=".537" opacity=".24">
      <path d="M265.939 223.394a3.92 3.92 0 1 1-6.006-5.04 3.92 3.92 0 0 1 6.006 5.04M312.174 428.506a1.96 1.96 0 1 1-3.004-2.52 1.96 1.96 0 0 1 3.004 2.52M297.02 456.73a1.96 1.96 0 1 1-3.004-2.519 1.96 1.96 0 0 1 3.004 2.52M121.422 310.24a3.92 3.92 0 1 1-6.006-5.04 3.92 3.92 0 0 1 6.006 5.04M227.902 461.85a3.267 3.267 0 1 1-5.004-4.2 3.267 3.267 0 0 1 5.004 4.2M221.398 233.784a2.613 2.613 0 1 1-4.003-3.36 2.613 2.613 0 0 1 4.003 3.36M259.86 535.576a6.534 6.534 0 1 1-10.01-8.402 6.534 6.534 0 0 1 10.01 8.402M172.495 544.147a5.226 5.226 0 1 1-8.008-6.72 5.226 5.226 0 1 1 8.008 6.72M54.255 406.55a3.268 3.268 0 1 1-5.006-4.201 3.268 3.268 0 0 1 5.006 4.2M163.9 562.521a2.613 2.613 0 1 1-4.005-3.358 2.613 2.613 0 0 1 4.005 3.358M11.095 453.92a5.88 5.88 0 1 1-9.01-7.56 5.88 5.88 0 0 1 9.01 7.56M416.062 333.158a1.96 1.96 0 1 1-3.002-2.523 1.96 1.96 0 0 1 3.002 2.523M373.227 235.804a5.88 5.88 0 0 1-8.285.725 5.88 5.88 0 1 1 8.285-.724M94.599 523.136a2.613 2.613 0 1 1-4.004-3.36 2.613 2.613 0 0 1 4.004 3.36M114.263 546.459a3.92 3.92 0 1 1-6.007-5.04 3.92 3.92 0 0 1 6.007 5.04M176.423 594.353a5.88 5.88 0 1 1-9.009-7.56 5.88 5.88 0 0 1 9.01 7.56M48.402 578.192a3.92 3.92 0 1 1-6.006-5.04 3.92 3.92 0 0 1 6.006 5.04M12.757 531.223a2.613 2.613 0 1 1-4.005-3.359 2.613 2.613 0 0 1 4.005 3.359M219.487 402.76a2.613 2.613 0 1 1-4.005-3.358 2.613 2.613 0 0 1 4.005 3.358M264.592 324.612a2.615 2.615 0 1 1-4.005-3.362 2.615 2.615 0 0 1 4.005 3.362M303.009 392.672a3.92 3.92 0 1 1-6.006-5.04 3.92 3.92 0 0 1 6.006 5.04"/>
    </g>
    <path fill="url(#g)" d="M72 75a5 5 0 1 1-10 0 5 5 0 0 1 10 0zm192 147a2 2 0 1 1-4 0 2 2 0 0 1 4 0zm10 36.5a2.5 2.5 0 1 1-5 0 2.5 2.5 0 0 1 5 0zm-265-1a4.5 4.5 0 1 1-9 0 4.5 4.5 0 0 1 9 0zm207 56a3.5 3.5 0 1 1-7 0 3.5 3.5 0 0 1 7 0zm-176-196c0 1.38-1.343 2.5-3 2.5s-3-1.12-3-2.5 1.343-2.5 3-2.5 3 1.12 3 2.5zm258 237a7.5 7.5 0 1 1-15.002-.002A7.5 7.5 0 0 1 298 354.5zm-71 73a5.5 5.5 0 1 1-11 0 5.5 5.5 0 1 1 11 0zM21 393a4.001 4.001 0 0 1-8 0 4.001 4.001 0 0 1 8 0zm212 56.5a2.5 2.5 0 1 1-5 .001 2.5 2.5 0 0 1 5-.002zM19 467a7 7 0 1 1-14 0 7 7 0 0 1 14 0zM285 62a2 2 0 1 1-4.001-.002A2 2 0 0 1 285 62zM176 6.5a6.5 6.5 0 0 1-6.5 6.5 6.5 6.5 0 1 1 6.5-6.5zm-33 460a2.5 2.5 0 1 1-5 0 2.5 2.5 0 0 1 5 0zm36 6.5c0 2.762-2.237 5-5 5a5 5 0 1 1 5-5zm90-4a7 7 0 1 1-14 0 7 7 0 0 1 14 0zm-126 80a5 5 0 1 1-10 0 5 5 0 0 1 10 0zm-66-14a3 3 0 1 1-6 0 3 3 0 0 1 6 0zm88-267.5a2.5 2.5 0 1 1-5 .001 2.5 2.5 0 0 1 5-.002zm-18-102c0 1.38-1.343 2.5-3 2.5s-3-1.12-3-2.5 1.343-2.5 3-2.5 3 1.12 3 2.5zm83 32a4.5 4.5 0 1 1-9.001 0 4.5 4.5 0 0 1 9.001 0z" opacity=".67" transform="rotate(39 94.936 936.518)"/>
    <path fill="url(#g)" d="M72 75a5 5 0 1 1-10 0 5 5 0 0 1 10 0zm192 147a2 2 0 1 1-4 0 2 2 0 0 1 4 0zm10 36.5a2.5 2.5 0 1 1-5 0 2.5 2.5 0 0 1 5 0zm-265-1a4.5 4.5 0 1 1-9 0 4.5 4.5 0 0 1 9 0zm207 56a3.5 3.5 0 1 1-7 0 3.5 3.5 0 0 1 7 0zm-176-196c0 1.38-1.343 2.5-3 2.5s-3-1.12-3-2.5 1.343-2.5 3-2.5 3 1.12 3 2.5zm258 237a7.5 7.5 0 1 1-15.002-.002A7.5 7.5 0 0 1 298 354.5zm-71 73a5.5 5.5 0 1 1-11 0 5.5 5.5 0 1 1 11 0zM21 393a4.001 4.001 0 0 1-8 0 4.001 4.001 0 0 1 8 0zm212 56.5a2.5 2.5 0 1 1-5 .001 2.5 2.5 0 0 1 5-.002zM19 467a7 7 0 1 1-14 0 7 7 0 0 1 14 0zM285 62a2 2 0 1 1-4.001-.002A2 2 0 0 1 285 62zM176 6.5a6.5 6.5 0 0 1-6.5 6.5 6.5 6.5 0 1 1 6.5-6.5zm-33 460a2.5 2.5 0 1 1-5 0 2.5 2.5 0 0 1 5 0zm36 6.5c0 2.762-2.237 5-5 5a5 5 0 1 1 5-5zm90-4a7 7 0 1 1-14 0 7 7 0 0 1 14 0zm-126 80a5 5 0 1 1-10 0 5 5 0 0 1 10 0zm-66-14a3 3 0 1 1-6 0 3 3 0 0 1 6 0zm88-267.5a2.5 2.5 0 1 1-5 .001 2.5 2.5 0 0 1 5-.002zm-18-102c0 1.38-1.343 2.5-3 2.5s-3-1.12-3-2.5 1.343-2.5 3-2.5 3 1.12 3 2.5zm83 32a4.5 4.5 0 1 1-9.001 0 4.5 4.5 0 0 1 9.001 0z" transform="rotate(39 326.883 1461.386)"/>
    <path fill="url(#h)" d="M105.16 0v174.785l4.89 2.814V2.813L105.16 0zM37.68 82.65l4.644 2.674V17.133l-4.645-2.674v68.19zM9.784 50.468l4.646 2.673V17.206l-4.646-2.674V50.47zM0 36.954l4.889 2.813V19.6L0 16.785v20.169zm85.592 96.317l4.889 2.814V21.804l-4.889-2.814V133.27zm29.354 28.659l4.888 2.813V26.93l-4.888-2.814V161.93zM19.083 49.772l4.646 2.674v-23.84l-4.646-2.674v23.84zm27.894 29.8l4.646 2.675V30.914l-4.646-2.673v51.331zm28.83 26.22l4.89 2.813V38.021l-4.89-2.814v70.585zM28.38 46.862l4.646 2.673v-7.318l-4.646-2.673v7.317zM134.515 164.79l4.889 2.813V46.599l-4.89-2.814V164.79zm-39.138-46.054l4.89 2.813V47.603l-4.89-2.814v73.947zm127.199 145.473l4.889 2.814V48.543l-4.89-2.814v218.48zM56.238 72.682l4.889 2.813v-26.89l-4.889-2.814v26.891zm68.492 78.073l4.89 2.813V49.37l-4.89-2.813v104.198zm68.492 76.392l4.89 2.815V51.816l-4.89-2.813v178.144zM66.023 74.952l4.89 2.813V57.597l-4.89-2.813v20.168zm146.767 165.14l4.89 2.812V61.4l-4.89-2.813v181.506zm-29.352-37.063l4.888 2.814V64.671l-4.888-2.815V203.03zm48.922 55.047l4.89 2.814V65.937l-4.89-2.813v194.952zm-29.354-37.06l4.889 2.813V69.212l-4.889-2.813v154.616zm-39.137-54.458l4.889 2.813V78.618l-4.89-2.813v90.753zm-19.57-29.75l4.889 2.813V85.843l-4.889-2.814v53.78zm97.846 106.732l4.888 2.814V91.738l-4.888-2.814V243.54zm-68.492-83.115l4.888 2.813V96.015l-4.888-2.815v67.225zm-19.57-31.43l4.89 2.813v-26.89l-4.89-2.814v26.891zm107.631 115.724l4.888 2.815v-134.45l-4.888-2.814v134.45zm-9.784-15.715l4.889 2.813v-114.28l-4.889-2.814v114.28zm19.569 6.222l4.887 2.812V133.841l-4.887-2.814v104.2zm78.275 78.663l4.89 2.813V145.279l-4.89-2.814v171.424zm-9.785-14.035l4.889 2.814V148.05l-4.89-2.813v154.616zm-58.706-82.526l4.889 2.815V163l-4.89-2.815v57.142zm39.138 42.693l4.888 2.813v-97.475l-4.888-2.814v97.476zm-29.354-47.146l4.89 2.815v-36.975l-4.89-2.813v36.973zm39.139 35.972l4.887 2.812v-63.863l-4.887-2.814v63.865zm29.353 33.699l4.889 2.813v-97.475l-4.89-2.814v97.476zm-58.707-70.762l4.888 2.813v-23.528l-4.888-2.813v23.528zm9.784.59l4.889 2.812v-13.444l-4.89-2.813v13.445zM428.05 325.326l4.889 2.814v-104.2l-4.889-2.812v104.198zm-58.708-69.08l4.89 2.813v-33.611l-4.89-2.815v33.613zm9.785 10.674l4.888 2.812v-43.695l-4.888-2.814v43.697zm9.785 8.993l4.889 2.812v-50.42l-4.89-2.813v50.42zm29.354 20.254l4.889 2.814v-57.142l-4.89-2.814v57.142zm29.354 32.02l4.888 2.813v-87.392l-4.888-2.813v87.392zm-48.923-56.727l4.888 2.812v-30.25l-4.888-2.813v30.25zm39.137 42.692l4.89 2.814v-70.587l-4.89-2.813v70.586zm-29.354-43.785l4.89 2.814v-16.805l-4.89-2.814v16.805zm48.924 41.602l4.888 2.814v-43.696l-4.888-2.813v43.695zm9.783-2.77l4.89 2.813v-26.89l-4.89-2.815v26.891zm9.786.589l4.889 2.813v-16.806l-4.89-2.814v16.807zm9.784 3.95l4.889 2.814v-13.445l-4.889-2.813v13.444zm9.784 3.951l4.888 2.813V310.42l-4.888-2.814v10.084zm9.786 3.95l4.888 2.813v-6.722l-4.888-2.813v6.723zm9.784 5.632l4.888 2.814v-6.723l-4.888-2.813v6.722z" opacity=".3" transform="translate(588 6)"/>
    <g opacity=".5">
      <path fill="url(#b)" d="M.57 29.02V2.8C.57.903 1.722.03 3.143.852l65.685 39.61c1.42.821 2.574 3.025 2.574 4.921v35.229c0 1.896-1.154 2.767-2.574 1.946l-29.604-18.49-4.763 3.6-4.762-9.1-26.556-15.62C1.723 42.125.57 39.923.57 38.027v-5.045" transform="translate(1005 165)"/>
      <path fill="#E5537B" d="M1027 193.168c0 4.835-3.582 6.794-8 4.377-4.418-2.418-8-8.297-8-13.132 0-4.835 3.582-6.795 8-4.377 4.418 2.417 8 8.296 8 13.132" opacity=".8"/>
      <g transform="translate(1011.615 180.224)">
        <mask id="j" fill="#fff">
          <use xlink:href="#i"/>
        </mask>
        <path fill="#FFF" d="M12.39 18.346c-.115-.132-2.86-3.258-5.013-4.49-2.154-1.232-4.898-1.246-5.013-1.246-.229 0-.372.184-.372.476v.77c0 .425.3.943.673 1.155l4.941 4.237c.372.212 5.156 1.196 5.156.77v-.77c0-.292-.143-.64-.372-.902M4.684 8.464v-1.54c0-1.7 1.208-2.39 2.693-1.541 1.485.85 2.693 2.923 2.693 4.622v1.54c0 1.7-1.208 2.39-2.693 1.54-1.485-.849-2.693-2.922-2.693-4.621" mask="url(#j)"/>
      </g>
      <g opacity=".8">
        <path fill="#8998AF" d="M1056.511 207.216l-22.918-13.95a1.205 1.205 0 0 1-.4-1.691 1.288 1.288 0 0 1 1.745-.386l22.918 13.948c.591.36.77 1.117.398 1.692a1.287 1.287 0 0 1-1.743.387" opacity=".3"/>
        <path fill="#E5537B" d="M1061.786 210.266a1.205 1.205 0 0 1-.4-1.691 1.288 1.288 0 0 1 1.746-.386l6.757 4.101c.59.36.77 1.117.398 1.691a1.287 1.287 0 0 1-1.743.388l-6.758-4.103zM1041.47 205.362l-7.852-4.543c-.6-.347-.797-1.1-.44-1.683a1.29 1.29 0 0 1 1.737-.425l7.852 4.543c.6.348.796 1.102.439 1.683a1.287 1.287 0 0 1-1.735.425"/>
        <path fill="#8998AF" d="M1064.582 218.984l-16.9-10.468a1.205 1.205 0 0 1-.386-1.695 1.289 1.289 0 0 1 1.746-.374l16.903 10.47c.587.363.76 1.122.385 1.692a1.287 1.287 0 0 1-1.748.375M1033.597 208.38a1.207 1.207 0 0 1-.406-1.69 1.285 1.285 0 0 1 1.742-.392l26.727 16.151c.592.359.775 1.116.404 1.692a1.287 1.287 0 0 1-1.742.391l-26.725-16.151z" opacity=".3"/>
      </g>
    </g>
    <path fill="url(#b)" d="M.129 26.474V2.137C.129.377 1.195-.433 2.51.33L33.962 20.08c1.314.762 2.38 2.808 2.38 4.568v32.697c0 1.76-1.066 2.568-2.38 1.807l-12.479-7.836-4.405 3.342-4.405-8.446L2.51 39.4C1.195 38.638.129 36.595.129 34.835v-4.683" opacity=".5" transform="translate(1022 363)"/>
    <g opacity=".7">
      <path fill="url(#b)" d="M.227 31.756V3.37C.227.989 1.668-.106 3.445.925l83.151 50.11c1.776 1.03 3.217 3.796 3.217 6.175v39.692c0 2.38-1.441 3.472-3.217 2.443L45.49 74.38l-5.952 4.518-5.952-11.42-30.14-18.244C1.668 48.204.227 45.44.227 43.061v-6.332" transform="translate(855 259)"/>
      <path fill="#FECA64" d="M878 288.734c0 5.029-3.806 7.067-8.5 4.553-4.694-2.515-8.5-8.63-8.5-13.658 0-5.028 3.806-7.066 8.5-4.552 4.694 2.514 8.5 8.629 8.5 13.657" opacity=".8"/>
      <g transform="translate(861.654 275.273)">
        <mask id="l" fill="#fff">
          <use xlink:href="#k"/>
        </mask>
        <path fill="#FFF" d="M12.51 19.08c-.122-.138-3.038-3.388-5.326-4.67-2.288-1.281-5.204-1.296-5.326-1.296-.243 0-.396.192-.396.495v.801c0 .443.32.98.715 1.202l5.25 4.405c.396.222 5.48 1.245 5.48.802v-.8c0-.304-.154-.667-.396-.939M4.323 8.803V7.2c0-1.766 1.284-2.485 2.861-1.602 1.578.884 2.861 3.04 2.861 4.807v1.602c0 1.767-1.283 2.486-2.86 1.602-1.578-.883-2.862-3.04-2.862-4.806" mask="url(#l)"/>
      </g>
      <g opacity=".8">
        <path fill="#8998AF" d="M884.617 289.306c-.616-.366-.802-1.137-.416-1.721.387-.585 1.199-.76 1.815-.393l48.063 28.286c.614.366.801 1.136.414 1.72-.386.585-1.197.761-1.813.395l-48.063-28.287z" opacity=".34"/>
        <path fill="#8998AF" d="M892.81 301.613l-8.167-4.623c-.625-.353-.83-1.119-.457-1.712.372-.591 1.18-.786 1.805-.433l8.168 4.623c.624.354.828 1.121.456 1.713-.372.593-1.18.786-1.804.432M899.908 305.317c-.613-.372-.792-1.142-.4-1.725.39-.58 1.203-.75 1.816-.38l24.713 14.528c.612.37.791 1.142.4 1.722-.39.583-1.204.753-1.817.382l-24.712-14.527zM884.608 313.004c-.613-.372-.792-1.142-.4-1.725.39-.58 1.203-.75 1.816-.38l24.713 14.528c.612.37.791 1.142.4 1.723-.39.583-1.204.753-1.817.381l-24.712-14.527z" opacity=".4"/>
        <path fill="#FECA64" d="M884.62 304.684c-.617-.366-.805-1.136-.42-1.72.383-.586 1.195-.765 1.81-.399l39.412 22.82c.616.364.806 1.134.42 1.72-.383.584-1.194.763-1.812.399l-39.41-22.82z"/>
      </g>
    </g>
    <path fill="url(#m)" d="M96.895 5.17l-.058.038-27.893 16.16 12.691 3.983c-2.34 6.381-3.805 13.888-4.188 22.39-.653-.388-1.293-.786-1.947-1.163-13.163-7.63-25.21-8.162-34.462-2.882-.044.01-.072.038-.096.058a6.962 6.962 0 0 0-.434.258c-.106.058-.205.106-.325.192-4.828 2.847-28.92 17.134-28.92 17.178.097 0 8.21 3.002 13.875 5.075-1.604 5.73-2.498 12.313-2.535 19.638-.014.196-.014.388-.014.58 0 .367 0 .731.014 1.091.42 38.818 23.954 83.533 52.897 100.29a46.263 46.263 0 0 0 3.323 1.78l232.146 134.398 4.502 2.614a65.964 65.964 0 0 0 3.323 2.059 58.471 58.471 0 0 0 3.476 1.863c-2.607 1.804-4.55 3.173-4.588 3.235-.096.12-1.601 1.973-2.618 3.215-.52.645-.906 1.132-.906 1.132l2.268 2.906 6.549 8.389 29.278-17.327c11.883-6.093 19.452-21.43 19.452-43.525 0-31.372-15.288-66.848-36.464-88.34-.013-.027-.027-.037-.048-.061.02-.292.02-.607.02-.91 0-26.274-5.939-54.119-16.115-80.297-17.121-44.036-46.249-83.362-79.284-102.493-8.113-4.697-15.975-7.904-23.5-9.695a60.808 60.808 0 0 0-4.865-.985 59.116 59.116 0 0 0-8.718-.786h-.01c-9.31-.14-17.857 2.072-25.368 6.44-.123.058-.232.134-.338.196l-20.492 12.41c-6.303-6.746-13.112-12.362-20.215-16.48C127.994 2.982 120.08.704 112.901.704c-5.895 0-11.29 1.533-16.006 4.467" transform="translate(477.064 68)"/>
    <path fill="url(#n)" d="M53.872 58.773C24.472 41.406.353 59.36.003 98.868c-.002.123-.003.5-.003 1.135.11 39.244 23.5 84.659 52.616 101.86a53.709 53.709 0 0 0 3.332 1.817l238.123 140.674a62.014 62.014 0 0 0 3.325 2.117c7.506 4.434 14.666 6.565 21.175 6.624 19.247-.167 32.441-17.579 32.694-46.719.002-.125.003-.517.003-1.176-.1-31.469-15.156-66.897-36.137-88.546.65-72.184-41.816-155.317-94.836-186.636-33.598-19.845-63.357-14.116-80.812 10.868-7.26-8.633-15.302-15.781-23.783-20.796-8.485-5.01-16.572-7.384-23.909-7.384-19.946 0-34.337 17.534-35.97 47.264a62.804 62.804 0 0 0-1.949-1.197z" transform="translate(477.064 68)"/>
    <path fill="#31BCB6" d="M671.123 177.528l-1.98-.68c-1.986-.684-3.605.902-3.605 3.532l-.073 107.406c-.003 2.627 1.612 5.417 3.595 6.21l1.98.792c1.983.794 3.601-.713 3.601-3.353l.08-107.871c.003-2.644-1.612-5.352-3.598-6.036m-61.237-8.005l-1.98-.696c-1.983-.697-3.602.817-3.602 3.372l-.01 78.226c-.002 2.555 1.613 5.27 3.596 6.048l1.98.778c1.986.781 3.601-.67 3.601-3.236l.016-78.577c0-2.565-1.612-5.218-3.601-5.915m30.625-14.697l-1.977-.67c-1.99-.671-3.605.894-3.608 3.489l-.05 130.105c0 2.594 1.611 5.361 3.597 6.166l1.974.804c1.986.804 3.601-.658 3.601-3.262l.064-130.685c.003-2.607-1.612-5.277-3.601-5.947m15.298 28.568l-1.98-.693c-1.986-.693-3.605.866-3.605 3.477l-.048 84.423c0 2.614 1.612 5.375 3.599 6.156l1.98.784c1.982.782 3.598-.716 3.598-3.34l.054-84.794c0-2.62-1.612-5.32-3.598-6.013m-30.61-18.373l-1.982-.686c-1.986-.687-3.602.852-3.602 3.427l-.028 98.49c0 2.575 1.612 5.313 3.598 6.104l1.976.787c1.987.788 3.599-.67 3.602-3.255l.035-98.932c0-2.585-1.612-5.248-3.598-5.935m61.205 49.11l-1.98-.713c-1.986-.71-3.604.87-3.604 3.52l-.039 45.674c0 2.65 1.612 5.43 3.595 6.192l1.983.762c1.983.768 3.598-.778 3.602-3.438l.038-45.874c.003-2.66-1.609-5.41-3.595-6.123m-91.824-32.953l-1.98-.71c-1.986-.713-3.601.775-3.601 3.307v43.693c0 2.533 1.615 5.218 3.598 5.983l1.98.762c1.986.765 3.601-.687 3.601-3.232l.004-43.889c0-2.545-1.616-5.202-3.602-5.914"/>
    <path fill="#102263" fill-opacity=".383" d="M732.041 320.914c-4.452-2.583-10.041.614-10.041 5.746v80.353a6.643 6.643 0 0 0 3.317 5.745l93.642 54.328c4.452 2.582 10.041-.615 10.041-5.746v-80.354a6.643 6.643 0 0 0-3.316-5.744l-93.643-54.328z" opacity=".06"/>
    <path fill="#102263" fill-opacity=".291" d="M720.041 329.914c-4.452-2.583-10.041.614-10.041 5.746v80.353a6.643 6.643 0 0 0 3.317 5.745l93.642 54.328c4.452 2.582 10.041-.615 10.041-5.746v-80.354a6.643 6.643 0 0 0-3.316-5.744l-93.643-54.328z" opacity=".2"/>
    <path fill="url(#o)" fill-opacity=".8" d="M21.041 18.914C16.59 16.331 11 19.528 11 24.66v80.353a6.643 6.643 0 0 0 3.317 5.745l93.642 54.328c4.452 2.582 10.041-.615 10.041-5.746V78.986a6.643 6.643 0 0 0-3.316-5.744L21.041 18.914z" opacity=".6" transform="translate(688 320)"/>
    <path d="M694.356 410.77s10.604-26.158 16.023-13.793c5.42 12.366 9.425 17.122 17.437 6.897 8.011-10.226 23.092-27.823 32.281-7.134 9.19 20.688 11.074 23.066 16.023 18.548 4.949-4.519 11.075-10.7 19.793-1.903 8.72 8.799 17.673 1.428 17.673 1.428L809.58 494 692 431.22l2.356-20.45z"/>
    <path fill="url(#p)" d="M27.966 16.733C20.1 26.946 16.169 22.196 10.848 9.845 7.914 3.033 3.43 7.927 0 13.685v24.6c0 2.393 1.24 4.607 3.254 5.812l91.892 54.978c4.369 2.613 9.854-.622 9.854-5.814V30.506c-2.996.248-6.608-.607-10.179-4.272-8.56-8.788-14.574-2.613-19.432 1.9-4.858 4.513-6.708 2.137-15.73-18.526C56.604 2.612 52.889 0 49.002 0c-7.594 0-15.834 9.978-21.036 16.733" opacity=".7" transform="translate(688 394)"/>
    <g opacity=".34">
      <path fill="url(#m)" d="M208.426 116.46c3.076 1.761 5.582 6.674 5.574 10.924l-.307 141.445c-.008 4.26-2.53 6.297-5.606 4.539L5.582 157.54C2.507 155.78-.01 150.862 0 146.602L.307 5.156C.317.906 2.847-1.127 5.92.634L208.426 116.46z" transform="translate(356 152)"/>
      <path d="M361.921 152.632c-3.075-1.757-5.606.274-5.616 4.524L356 298.6c-.01 4.263 2.507 9.18 5.58 10.94l202.505 115.826c3.075 1.761 5.598-.276 5.608-4.536L570 279.384c.008-4.25-2.5-9.164-5.576-10.921l-202.503-115.83z"/>
    </g>
    <path fill="url(#o)" fill-opacity=".8" d="M77.07 103.486c0 1.069-.762 1.502-1.703.968l-23.84-13.546c-.94-.534-1.703-1.834-1.703-2.903V86.07c0-.733.364-1.196.942-1.196.292 0 7.233.036 12.681 3.131 5.448 3.096 12.389 10.948 12.682 11.28.577.656.941 1.533.941 2.266v1.935zM56.636 70.59c0-4.267 3.055-6.004 6.811-3.87 3.756 2.134 6.812 7.343 6.812 11.61V82.2c0 4.268-3.056 6.004-6.812 3.87-3.756-2.134-6.811-7.342-6.811-11.61v-3.87zm38.669 4.637L31.589 39.023c-1.404-.798-2.554-.145-2.554 1.451V84.82c0 1.597 1.15 3.556 2.554 4.354l63.716 36.203c1.405.798 2.554.145 2.554-1.451V79.58c0-1.597-1.15-3.556-2.554-4.354z" transform="translate(356 152)"/>
    <path fill="url(#q)" fill-opacity=".8" d="M156.648 149.69c0 1.069-.762 1.502-1.703.968l-23.84-13.546c-.94-.534-1.703-1.834-1.703-2.903v-1.935c0-.733.364-1.196.942-1.196.292 0 7.233.036 12.681 3.131 5.448 3.096 12.389 10.948 12.682 11.28.577.656.941 1.533.941 2.266v1.935zm-20.434-32.897c0-4.268 3.055-6.004 6.811-3.87 3.756 2.134 6.812 7.343 6.812 11.61v3.871c0 4.268-3.056 6.004-6.812 3.87-3.756-2.134-6.811-7.342-6.811-11.61v-3.87zm38.669 4.637l-63.716-36.203c-1.404-.798-2.554-.145-2.554 1.451v44.346c0 1.597 1.15 3.556 2.554 4.354l63.716 36.203c1.405.798 2.554.145 2.554-1.451v-44.346c0-1.597-1.15-3.556-2.554-4.354z" transform="translate(356 152)"/>
    <path fill="url(#o)" fill-opacity=".8" d="M156.648 216.31c0 1.068-.762 1.502-1.703.967l-23.84-13.545c-.94-.535-1.703-1.835-1.703-2.903v-1.935c0-.734.364-1.197.942-1.197.292 0 7.233.036 12.681 3.132 5.448 3.095 12.389 10.947 12.682 11.28.577.656.941 1.533.941 2.266v1.935zm-20.434-32.897c0-4.268 3.055-6.004 6.811-3.87 3.756 2.134 6.812 7.342 6.812 11.61v3.87c0 4.269-3.056 6.005-6.812 3.87-3.756-2.133-6.811-7.342-6.811-11.61v-3.87zm38.669 4.636l-63.716-36.203c-1.404-.798-2.554-.145-2.554 1.452v44.346c0 1.596 1.15 3.556 2.554 4.354l63.716 36.202c1.405.799 2.554.146 2.554-1.45v-44.347c0-1.596-1.15-3.556-2.554-4.354zM77.372 162.665c0 .686-.313 1.145-.826 1.214-.28.037-.597-.044-.915-.225a3.095 3.095 0 0 1-.778-.651l-4.443-5.05v4.712c0 1.093-.78 1.535-1.741.989l-17.405-9.89c-.962-.546-1.741-1.874-1.741-2.967v-19.779c0-1.092.78-1.535 1.74-.989l17.406 9.89c.961.546 1.74 1.875 1.74 2.967v4.711h4.444c.246 0 .512.082.778.234.318.18.636.46.915.815.513.652.826 1.466.826 2.151v11.868zm17.933-20.82L31.59 105.643c-1.404-.799-2.554-.145-2.554 1.451v44.346c0 1.596 1.15 3.556 2.554 4.354l63.716 36.203c1.405.798 2.554.145 2.554-1.452V146.2c0-1.596-1.149-3.555-2.554-4.354z" transform="translate(356 152)"/>
    <g fill="url(#b)" opacity=".24" transform="translate(297 300)">
      <path d="M.162 32.919V2.658c0-2.189 1.344-3.196 3-2.248l39.624 24.56c1.656.948 3 3.49 3 5.68v40.657c0 2.188-1.344 3.193-3 2.246L27.065 63.81l-5.55 4.155-5.55-10.502-12.802-8.47c-1.657-.949-3-3.49-3-5.678v-5.823"/>
    </g>
    <g fill="url(#b)" opacity=".2" transform="translate(295 99)">
      <path d="M.081 16.46V1.328C.081.235.753-.27 1.581.205l19.812 12.28c.828.474 1.5 1.745 1.5 2.84v20.328c0 1.095-.672 1.597-1.5 1.124l-7.86-4.872-2.776 2.077-2.774-5.25-6.402-4.236c-.828-.474-1.5-1.744-1.5-2.839v-2.91"/>
    </g>
    <g fill="url(#b)" opacity=".24" transform="translate(684 473)">
      <path d="M.092 18.684V1.508C.092.266.852-.305 1.788.233l22.395 13.939c.936.538 1.696 1.981 1.696 3.224V40.47c0 1.242-.76 1.813-1.696 1.275l-8.886-5.53-3.136 2.359-3.137-5.961-7.236-4.807C.85 27.268.092 25.827.092 24.584V21.28"/>
    </g>
    <g fill="url(#b)" opacity=".24" transform="translate(798)">
      <path d="M.11 22.242V1.796c0-1.48.905-2.16 2.021-1.519l26.703 16.594c1.116.64 2.021 2.36 2.021 3.838V48.18c0 1.479-.905 2.158-2.021 1.518l-10.595-6.583-3.74 2.807-3.74-7.096-8.628-5.723C1.015 32.463.11 30.746.11 29.267v-3.934"/>
    </g>
    <path fill="url(#b)" d="M967 112.69V87.193c0-1.844 1.126-2.692 2.515-1.893l47.971 27.467c1.388.798 2.514 2.941 2.514 4.785v34.254c0 1.844-1.126 2.69-2.514 1.893l-21.832-13.522-4.65 3.5-4.65-8.848-16.84-8.598c-1.388-.8-2.514-2.94-2.514-4.784v-4.905" opacity=".5" transform="translate(-50)"/>
    <path fill="url(#b)" d="M384 20.65V6.24c0-1.042.637-1.522 1.423-1.07l27.154 15.525c.786.451 1.423 1.662 1.423 2.704v19.362c0 1.042-.637 1.52-1.423 1.07l-12.357-7.643-2.633 1.978-2.632-5.001-9.532-4.86c-.786-.452-1.423-1.662-1.423-2.704v-2.773" opacity=".15" transform="translate(-50)"/>
    <g fill="url(#h)" opacity=".4" transform="translate(837 339)">
      <path d="M67.618 0v111.947l3.144 1.802V1.802L67.618 0zm-43.39 52.935l2.986 1.714V10.973l-2.986-1.712v43.674zM6.292 32.325l2.987 1.712V11.02L6.292 9.308v23.016zM0 23.667l3.144 1.802V12.553L0 10.75v12.917zm55.035 61.69l3.144 1.802V13.965l-3.144-1.802v73.195zm18.875 18.355l3.143 1.802V17.249l-3.143-1.802v88.266zM12.27 31.878l2.987 1.713V18.32L12.27 16.61v15.27zm17.936 19.087l2.988 1.713V19.8l-2.988-1.712v32.877zm18.538 16.793l3.143 1.802V24.352l-3.143-1.802v45.208zM18.248 30.014l2.988 1.712V27.04l-2.988-1.713v4.687zm68.244 75.531l3.144 1.802V29.846l-3.144-1.802v77.501zM61.327 76.048l3.144 1.802V30.49l-3.144-1.803v47.362zm81.788 93.173l3.144 1.803V31.091l-3.144-1.802V169.22zM36.161 46.551l3.143 1.802V31.13l-3.143-1.802v17.224zM80.2 96.557l3.143 1.802V31.621l-3.143-1.802v66.737zm44.04 48.928l3.144 1.803v-114.1l-3.144-1.801v114.098zM42.453 48.005l3.143 1.802V36.89l-3.143-1.802v12.917zm94.37 105.77l3.144 1.801V39.325l-3.144-1.802v116.252zm-18.874-23.738l3.144 1.802V41.421l-3.144-1.803v90.419zm31.457 35.256l3.144 1.803V42.23l-3.144-1.801v124.863zm-18.874-23.736l3.143 1.801V44.33l-3.143-1.802v99.03zm-25.165-34.88l3.143 1.802V50.353l-3.143-1.801v58.126zM92.784 87.624l3.143 1.802V54.981l-3.143-1.802v34.444zm62.914 68.36l3.143 1.802V58.757l-3.143-1.803v99.03zm-44.04-53.234l3.143 1.802V61.496l-3.143-1.803v43.056zM99.075 82.62l3.143 1.802V67.198l-3.143-1.802v17.223zm69.206 74.12l3.143 1.802V72.43l-3.143-1.803v86.113zm-6.291-10.066l3.143 1.802V75.28l-3.143-1.802v73.195zm12.582 3.985l3.143 1.802V85.723l-3.143-1.802v66.737zm50.33 50.383l3.145 1.801V93.05l-3.144-1.803v109.795zm-6.291-8.99l3.143 1.803v-99.03l-3.143-1.802v99.03zm-37.748-52.856l3.144 1.803v-36.599l-3.144-1.802v36.598zm25.166 27.344l3.143 1.802V105.91l-3.143-1.803v62.432zm-18.874-30.196l3.143 1.803v-23.682l-3.143-1.802v23.681zm25.165 23.04l3.143 1.8V120.28l-3.143-1.802v40.904zm18.874 21.583l3.144 1.802v-62.432l-3.144-1.802v62.432zm-37.748-45.322l3.143 1.802v-15.07l-3.143-1.801v15.069zm6.291.378l3.144 1.801v-8.61l-3.144-1.802v8.611zm75.497 72.344l3.144 1.802V143.43l-3.144-1.801v66.737zm-37.749-44.245l3.145 1.802v-21.528l-3.145-1.802v21.528zm6.292 6.837l3.143 1.8v-27.985l-3.143-1.803v27.988zm6.292 5.76l3.143 1.8v-32.292l-3.143-1.802v32.294zm18.874 12.972l3.144 1.802v-36.598l-3.144-1.802v36.598zm18.875 20.508L290.96 212v-55.973l-3.142-1.802v55.973zm-31.457-36.332l3.142 1.8v-19.374l-3.142-1.802v19.376zm25.165 27.343l3.143 1.802v-45.21L281.526 156v45.21zm-18.875-28.043l3.144 1.802v-10.763l-3.144-1.803v10.764zm31.458 26.645l3.143 1.802v-27.986l-3.143-1.802v27.986zm6.29-1.775l3.144 1.802v-17.222l-3.144-1.803v17.223zm6.292.378l3.144 1.802v-10.764l-3.144-1.803v10.765zm6.292 2.53l3.143 1.802v-8.611l-3.143-1.802v8.611zm6.29 2.53l3.144 1.802v-6.458l-3.143-1.802v6.459zm6.293 2.53l3.143 1.802v-4.305l-3.143-1.802v4.306zm6.291 3.607l3.143 1.803v-4.306l-3.143-1.802v4.305z"/>
    </g>
  </g>
</svg>
