<svg xmlns="http://www.w3.org/2000/svg" xmlns:xlink="http://www.w3.org/1999/xlink" width="403" height="334">
  <defs>
    <path id="a" d="M.00219819.01594332H339.455995V196H.00219819z"/>
    <path id="c" d="M182.863 2.181L3.433 105.775c-2.244 1.296-3.369 3.019-3.425 4.831H0v8.317h.012c-.026 2.265 1.61 4.66 4.844 6.529l131.913 76.159c5.869 3.388 14.745 3.756 19.826.822L336.025 98.84c2.321-1.34 3.435-3.138 3.416-5.017h.005V85.88c.003-.067 0-.135 0-.201v-.056h-.003c-.006-2.245-1.638-4.611-4.841-6.459l-115.19-66.506-14.772-8.529-1.951-1.126c-3.21-1.853-7.32-2.802-11.216-2.802-3.228 0-6.308.651-8.61 1.98"/>
    <path id="e" d="M.39180521.92224332H339.845V196.906357H.39180521z"/>
    <path id="g" d="M142.63 1.799L2.18 82.887c-1.127.651-1.683 1.484-1.683 2.275H.46v6.432h.039c.026.631.4 1.232 1.182 1.683l48.084 27.761c1.786 1.031 4.905.903 6.966-.288l140.45-81.088c1.143-.66 1.698-1.504 1.684-2.303h.012v-6.365h-.012c-.011-.646-.386-1.262-1.183-1.722L149.598 1.51c-.809-.467-1.891-.696-3.025-.696-1.37 0-2.815.334-3.943.985"/>
    <path id="i" d="M142.63 1.799L2.18 82.887c-2.061 1.191-2.285 2.991-.499 4.022l48.084 27.762c1.786 1.031 4.905.901 6.966-.289l6.295-3.634 7.99-4.613 126.165-72.842c2.062-1.19 2.286-2.991.501-4.022L149.598 1.51c-.809-.467-1.891-.696-3.025-.696-1.37 0-2.815.334-3.943.985"/>
    <path id="k" d="M.90007364.28974512H86.6V49.7694214H.90007364z"/>
    <path id="m" d="M.006.842v13.622c.004.998.604 1.949 1.837 2.661L38.052 38.03c2.73 1.576 7.498 1.378 10.649-.441l34.391-19.856c1.595-.92 2.467-2.079 2.591-3.204h.005v-.127c.006-.112.008-.223 0-.332V.842H.006z"/>
    <path id="o" d="M.624.843v71.835c.004.998.605 1.95 1.837 2.662l36.208 20.904c2.73 1.576 7.499 1.379 10.65-.441l34.392-19.856c1.595-.92 2.467-2.079 2.59-3.204h.005v-.128c.007-.111.009-.222 0-.332V.843H.624z"/>
    <path id="q" d="M.636.162V42.89c.003.998.605 1.95 1.837 2.662l36.208 20.905c2.73 1.575 7.498 1.378 10.651-.442l34.391-19.856c1.595-.92 2.467-2.079 2.589-3.204h.006v-.127c.006-.111.008-.223 0-.332V.162H.636z"/>
    <path id="s" d="M28.277 1.323c-4.351 2.513-5.709 11.238-9.793 13.596-2.424 1.4-3.802.951-5.074.502-1.153-.408-2.219-.815-3.9.156C4.317 18.576 4.163 28.715.896 30.606v6.131l2.438 1.402 4.858-2.803 15.525-8.965 7.49-4.324 15.466-8.928V3.292l-2.438-1.403c-.675.276-1.312.492-1.917.661-3.89 1.087-6.357.143-8.385-.743-1.271-.558-2.371-1.093-3.545-1.093-.665 0-1.354.172-2.111.609"/>
    <path id="u" d="M27.715.725c-4.351 2.513-5.709 11.239-9.792 13.597-2.425 1.399-3.802.95-5.074.501-1.153-.408-2.219-.815-3.9.157C3.754 17.978 3.602 28.117.334 30.008v6.131l4.858-2.803 15.525-8.965 7.49-4.324 15.466-8.928V1.292c-.674.276-1.313.491-1.917.659-3.889 1.088-6.357.145-8.385-.742C32.101.651 31 .116 29.827.116c-.665 0-1.354.172-2.112.609"/>
    <path id="w" d="M35.605.576c-.93.519-1.64 1.443-2.235 2.625-2.476 4.928-2.957 14.332-9.1 17.392-2.124 1.059-3.592 1.212-4.7.945-.51-.468-.975-.922-1.511-1.183h.001l-2.098-1.288c-.027-.018-.054-.034-.08-.051l-.039-.023c-.725-.42-1.56-.505-2.816.249C8.585 21.907 9.673 28.619.968 33.443c-.222.124-.432.243-.634.362v4.328l2.398 1.458 43.34-25.023V8.492c-.632-1.089-1.269-2.145-1.917-3.088-.993-1.446-2.01-2.625-3.067-3.259v-.002L38.804.757c-.05-.032-.101-.063-.152-.092l-.044-.028c-.514-.293-1.037-.455-1.572-.455-.468 0-.944.124-1.431.394"/>
    <path id="y" d="M36.003 1.034c-.929.518-1.638 1.442-2.234 2.626-2.476 4.927-2.958 14.331-9.1 17.391-4.002 1.995-5.676.783-7.008-.428-1.203-1.095-2.127-2.188-4.235-.924-4.442 2.665-3.354 9.377-12.059 14.201-.222.124-.433.243-.635.362v4.329l43.34-25.023V7.492c-.632-1.089-1.269-2.145-1.917-3.088-1.5-2.183-3.054-3.765-4.721-3.766-.468 0-.944.125-1.431.396"/>
    <path id="A" d="M.048 17.901v4.747l6.805.013C6.812 15.219 17.23 9.205 30.117 9.228c11.513.021 21.103 4.85 23.051 11.183-1.592 5.167-8.298 9.297-17.002 10.593v4.749l1.743 3.805c12.89-1.918 22.387-8.651 22.425-16.696h.001v-4.751h-.001c0-.034.002-.068.001-.102C60.283 8.397 46.745.58 30.096.551h-.095C13.399.55-.003 8.306.048 17.901"/>
    <path id="C" d="M.816 13.128H.815v4.433l23.021 1.299-1.689 9.378v4.428c13.136.736 24.885-4.815 26.251-12.404.081-.45.124-.898.129-1.342h.001v-4.429h-.001C48.617 7.462 39.441 1.444 27.08.746 26.289.702 25.504.68 24.725.68 12.573.68 2.118 6.004.816 13.128"/>
    <path id="E" d="M.815 13.133l23.81 1.343-2.478 13.762c13.136.736 24.886-4.816 26.251-12.404C49.764 8.243 40.221 1.487 27.08.746 26.289.702 25.504.68 24.725.68 12.571.68 2.113 6.006.815 13.133"/>
    <path id="G" d="M.964.655c-.082.453-.124.902-.129 1.347H.833v4.472h.001c-.029 4.159 3.187 7.961 8.384 10.51L24.775 6.412V1.983L.967.64.964.655z"/>
    <path id="I" d="M.964.655c-.846 4.696 2.483 9.07 8.254 11.9L24.775 1.983.967.64.964.655z"/>
    <path id="K" d="M.218 11.555v4.429L15.776 5.411V.983z"/>
  </defs>
  <g fill="none" fill-rule="evenodd">
    <g transform="translate(63 137.078)">
      <mask id="b" fill="#fff">
        <use xlink:href="#a"/>
      </mask>
      <path fill="#3F4D63" fill-opacity=".30013021" d="M123.0568 185.2805l13.713 7.917c5.868 3.388 14.744 3.756 19.826.821l179.43-103.592c5.081-2.935 4.444-8.06-1.424-11.448l-131.913-76.16c-5.868-3.388-14.745-3.756-19.826-.821l-179.43 103.593c-5.082 2.934-4.444 8.059 1.424 11.447l97.855 56.497 20.345 11.746z" mask="url(#b)"/>
    </g>
    <g transform="translate(63 102.078)">
      <mask id="d" fill="#fff">
        <use xlink:href="#c"/>
      </mask>
      <path fill="#F0F2F5" d="M182.863 2.181L3.433 105.775c-2.244 1.296-3.369 3.019-3.425 4.831H0v8.317h.012c-.026 2.265 1.61 4.66 4.844 6.529l131.913 76.159c5.869 3.388 14.745 3.756 19.826.822L336.025 98.84c2.321-1.34 3.435-3.138 3.416-5.017h.005V85.88c.003-.067 0-.135 0-.201v-.056h-.003c-.006-2.245-1.638-4.611-4.841-6.459l-115.19-66.506-14.772-8.529-1.951-1.126c-3.21-1.853-7.32-2.802-11.216-2.802-3.228 0-6.308.651-8.61 1.98" mask="url(#d)"/>
    </g>
    <g transform="translate(63 101.078)">
      <mask id="f" fill="#fff">
        <use xlink:href="#e"/>
      </mask>
      <path fill="#FFF" d="M123.4455 186.1868l13.713 7.917c5.868 3.388 14.745 3.756 19.827.821l179.429-103.592c5.082-2.935 4.444-8.06-1.424-11.448l-131.913-76.16c-5.867-3.388-14.744-3.756-19.826-.821L3.8225 106.4968c-5.082 2.934-4.444 8.059 1.423 11.447l97.855 56.496" mask="url(#f)"/>
    </g>
    <g transform="translate(129 130.078)">
      <mask id="h" fill="#fff">
        <use xlink:href="#g"/>
      </mask>
      <path fill="#8998AF" d="M142.63 1.799L2.18 82.887c-1.127.651-1.683 1.484-1.683 2.275H.46v6.432h.039c.026.631.4 1.232 1.182 1.683l48.084 27.761c1.786 1.031 4.905.903 6.966-.288l140.45-81.088c1.143-.66 1.698-1.504 1.684-2.303h.012v-6.365h-.012c-.011-.646-.386-1.262-1.183-1.722L149.598 1.51c-.809-.467-1.891-.696-3.025-.696-1.37 0-2.815.334-3.943.985" mask="url(#h)"/>
    </g>
    <g transform="translate(129 130.078)">
      <mask id="j" fill="#fff">
        <use xlink:href="#i"/>
      </mask>
      <path fill="#F0F2F5" d="M142.63 1.799L2.18 82.887c-2.061 1.191-2.285 2.991-.499 4.022l48.084 27.762c1.786 1.031 4.905.901 6.966-.289l6.295-3.634 7.99-4.613 126.165-72.842c2.062-1.19 2.286-2.991.501-4.022L149.598 1.51c-.809-.467-1.891-.696-3.025-.696-1.37 0-2.815.334-3.943.985" mask="url(#j)"/>
    </g>
    <path fill="#A72649" d="M253.8381 183.2628c.043-3.767-2.424-7.549-7.417-10.431-9.859-5.692-25.794-5.721-35.592-.064-4.829 2.788-7.255 6.437-7.304 10.103h-.037v5.426h.041c.095 3.66 2.559 7.313 7.412 10.113 9.859 5.693 25.794 5.722 35.592.065 4.954-2.859 7.381-6.626 7.305-10.386v-4.826z"/>
    <path fill="#E5537B" d="M239.6437 196.1974c2.521-.576 4.827-1.626 6.89-2.816 9.797-5.657 9.748-14.857-.112-20.549-9.859-5.693-25.795-5.722-35.592-.065-9.798 5.657-9.749 14.857.111 20.549 4.318 2.493 9.793 4.232 15.426 4.219 5.227-.012 9.09-.38 13.277-1.338"/>
    <path fill="#FFF" d="M232.0578 189.6203l-13.432-7.755c-.682-.394-.471-1.431.311-1.526l17.031-2.078c.609-.075 1.081.521.87 1.097l-3.599 9.832c-.175.48-.74.685-1.181.43"/>
    <path fill="#CFD9E6" d="M252.799 231.6456l-52.381 30.241c-.744.431-1.871.477-2.515.105l-3.697-2.134c-.644-.372-.564-1.023.181-1.452l52.38-30.242c.745-.43 1.871-.477 2.516-.105l3.697 2.134c.644.373.563 1.023-.181 1.453m78.1719-45.1328l-70.196 40.527c-.744.43-1.871.477-2.516.105l-3.696-2.134c-.645-.373-.565-1.022.18-1.453l70.196-40.527c.745-.43 1.871-.477 2.516-.105l3.697 2.135c.644.372.563 1.022-.181 1.452m-22.5332 28.502l-51.312 29.624c-.745.43-1.871.477-2.515.105l-3.697-2.134c-.645-.373-.564-1.023.18-1.453l51.312-29.624c.745-.431 1.871-.477 2.516-.105l3.697 2.134c.644.372.563 1.022-.181 1.453m22.7656-13.1445l-14.79 8.539c-.744.43-1.871.477-2.516.105l-3.696-2.135c-.644-.372-.564-1.023.181-1.452l14.79-8.539c.745-.43 1.871-.477 2.515-.105l3.697 2.135c.645.372.564 1.022-.181 1.452m-178.4658-25.5137l-48.625 28.073c-2.061 1.191-2.284 2.99-.499 4.021l9.917 5.725c1.785 1.031 4.902.902 6.963-.288l48.625-28.074c2.06-1.189 2.284-2.989.5-4.02l-9.918-5.726c-1.785-1.03-4.902-.9-6.963.289"/>
    <path fill="#09A9E3" d="M70.4248 148.9156c.152.042.242.056-.003.002l.003-.002zm4.4961.9267c.071.017.149.029.225.044-.079-.013-.154-.027-.229-.042l.004-.002zm5.9268.9922c-.136-.015-1.565-.236-1.707-.261.253.04 1.453.229 1.707.261"/>
    <path fill="#09A9E3" d="M74.1436 149.691c-1.138-.207-3.69-.76-3.806-.793.447.104 2.484.542 3.806.793m0 0c.594.124.823.168.097.021-.035-.006-.07-.011-.097-.021m1.0019.1953c-.052-.009-.303-.055-.344-.065.392.086.823.151.344.065"/>
    <path fill="#8998AF" fill-opacity=".40242867" d="M4.4248 180.8006c-2.73-1.576-2.388-4.329.765-6.15l34.39-19.855c3.153-1.82 7.921-2.018 10.651-.442l36.209 20.905c2.729 1.576 2.387 4.329-.765 6.149l-34.392 19.856c-3.152 1.82-7.921 2.017-10.65.441l-36.208-20.904z"/>
    <path fill="#8998AF" fill-opacity=".4016361" d="M98.6817 169.4927l-36.209-20.905c-2.729-1.576-2.387-4.329.765-6.149l34.391-19.856c3.153-1.82 7.921-2.018 10.651-.442l36.208 20.906c2.73 1.576 2.387 4.329-.765 6.149l-34.391 19.856c-3.152 1.82-7.921 2.017-10.65.441"/>
    <g transform="translate(118 85.769)">
      <mask id="l" fill="#fff">
        <use xlink:href="#k"/>
      </mask>
      <path fill="#8998AF" fill-opacity=".39990942" d="M2.7432 27.8002c-2.73-1.575-2.388-4.329.765-6.149l34.39-19.856c3.153-1.819 7.921-2.018 10.651-.442l36.209 20.906c2.729 1.576 2.386 4.329-.765 6.149l-34.392 19.856c-3.152 1.82-7.921 2.017-10.65.441l-36.208-20.905z" mask="url(#l)"/>
    </g>
    <g transform="translate(0 149.769)">
      <mask id="n" fill="#fff">
        <use xlink:href="#m"/>
      </mask>
      <path fill="#F0F2F5" d="M.006.842v13.622c.004.998.604 1.949 1.837 2.661L38.052 38.03c2.73 1.576 7.498 1.378 10.649-.441l34.391-19.856c1.595-.92 2.467-2.079 2.591-3.204h.005v-.127c.006-.112.008-.223 0-.332V.842H.006z" mask="url(#n)"/>
    </g>
    <path fill="#FFF" d="M38.0518 174.4146l-36.209-20.904c-2.729-1.576-2.388-4.329.765-6.15l34.391-19.855c3.153-1.821 7.92-2.018 10.651-.442l36.208 20.905c2.73 1.576 2.387 4.329-.765 6.149l-34.392 19.856c-3.151 1.82-7.92 2.017-10.649.441"/>
    <g transform="translate(116 23.769)">
      <mask id="p" fill="#fff">
        <use xlink:href="#o"/>
      </mask>
      <path fill="#F0F2F5" d="M.624.843v71.835c.004.998.605 1.95 1.837 2.662l36.208 20.904c2.73 1.576 7.499 1.379 10.65-.441l34.392-19.856c1.595-.92 2.467-2.079 2.59-3.204h.005v-.128c.007-.111.009-.222 0-.332V.843H.624z" mask="url(#p)"/>
    </g>
    <path fill="#FFF" d="M154.669 48.4156l-36.208-20.905c-2.729-1.576-2.388-4.329.765-6.149l34.391-19.856c3.153-1.819 7.92-2.018 10.651-.442l36.208 20.906c2.729 1.576 2.387 4.329-.765 6.148l-34.392 19.857c-3.151 1.819-7.92 2.017-10.65.441"/>
    <g transform="translate(60 85.769)">
      <mask id="r" fill="#fff">
        <use xlink:href="#q"/>
      </mask>
      <path fill="#F0F2F5" d="M.636.162V42.89c.003.998.605 1.95 1.837 2.662l36.208 20.905c2.73 1.575 7.498 1.378 10.651-.442l34.391-19.856c1.595-.92 2.467-2.079 2.589-3.204h.006v-.127c.006-.111.008-.223 0-.332V.162H.636z" mask="url(#r)"/>
    </g>
    <path fill="#FFF" d="M98.6817 109.7349l-36.209-20.905c-2.729-1.576-2.387-4.329.765-6.15l34.391-19.855c3.153-1.82 7.921-2.018 10.651-.442l36.208 20.906c2.73 1.576 2.387 4.329-.765 6.148l-34.391 19.857c-3.152 1.819-7.921 2.017-10.65.441"/>
    <g transform="translate(15 128.769)">
      <mask id="t" fill="#fff">
        <use xlink:href="#s"/>
      </mask>
      <path fill="#1798B5" d="M18.484 14.919c-2.424 1.4-3.802.951-5.074.502-1.153-.408-2.219-.815-3.9.156C4.317 18.576 4.163 28.715.896 30.606v6.131l2.438 1.402 4.858-2.803 15.525-8.965 7.49-4.324 15.466-8.928V3.292l-2.438-1.403c-.675.276-1.312.492-1.917.661-3.89 1.087-6.357.143-8.385-.743-1.271-.558-2.371-1.093-3.545-1.093-.665 0-1.354.172-2.111.609-4.351 2.513-5.709 11.238-9.793 13.596z" mask="url(#t)"/>
    </g>
    <g transform="translate(18 130.769)">
      <mask id="v" fill="#fff">
        <use xlink:href="#u"/>
      </mask>
      <path fill="#00B5D0" d="M27.715.725c-4.351 2.513-5.709 11.239-9.792 13.597-2.425 1.399-3.802.95-5.074.501-1.153-.408-2.219-.815-3.9.157C3.754 17.978 3.602 28.117.334 30.008v6.131l4.858-2.803 15.525-8.965 7.49-4.324 15.466-8.928V1.292c-.674.276-1.313.491-1.917.659-3.889 1.088-6.357.145-8.385-.742C32.101.651 31 .116 29.827.116c-.665 0-1.354.172-2.112.609" mask="url(#v)"/>
    </g>
    <path fill="#1798B5" d="M18.334 160.7769l-2.438-1.402v6.131l2.438 1.403z"/>
    <g transform="translate(18 128.769)">
      <mask id="x" fill="#fff">
        <use xlink:href="#w"/>
      </mask>
      <path fill="#7A2B88" d="M35.605.576c-.93.519-1.64 1.443-2.235 2.625-2.476 4.928-2.957 14.332-9.1 17.392-2.124 1.059-3.592 1.212-4.7.945-.51-.468-.975-.922-1.511-1.183h.001l-2.098-1.288c-.027-.018-.054-.034-.08-.051l-.039-.023c-.725-.42-1.56-.505-2.816.249C8.585 21.907 9.673 28.619.968 33.443c-.222.124-.432.243-.634.362v4.328l2.398 1.458 43.34-25.023V8.492c-.632-1.089-1.269-2.145-1.917-3.088-.993-1.446-2.01-2.625-3.067-3.259v-.002L38.804.757c-.05-.032-.101-.063-.152-.092l-.044-.028c-.514-.293-1.037-.455-1.572-.455-.468 0-.944.124-1.431.394" mask="url(#x)"/>
    </g>
    <g transform="translate(20 129.769)">
      <mask id="z" fill="#fff">
        <use xlink:href="#y"/>
      </mask>
      <path fill="#8B4298" d="M36.003 1.034c-.929.518-1.638 1.442-2.234 2.626-2.476 4.927-2.958 14.331-9.1 17.391-4.002 1.995-5.676.783-7.008-.428-1.203-1.095-2.127-2.188-4.235-.924-4.442 2.665-3.354 9.377-12.059 14.201-.222.124-.433.243-.635.362v4.329l43.34-25.023V7.492c-.632-1.089-1.269-2.145-1.917-3.088-1.5-2.183-3.054-3.765-4.721-3.766-.468 0-.944.125-1.431.396" mask="url(#z)"/>
    </g>
    <path fill="#7A2B88" d="M18.334 162.5738l2.398 1.457v4.329l-2.398-1.458z"/>
    <g transform="translate(71 60.769)">
      <mask id="B" fill="#fff">
        <use xlink:href="#A"/>
      </mask>
      <path fill="#1798B5" d="M.048 17.901v4.747l6.805.013C6.812 15.219 17.23 9.205 30.117 9.228c11.513.021 21.103 4.85 23.051 11.183-1.592 5.167-8.298 9.297-17.002 10.593v4.749l1.743 3.805c12.89-1.918 22.387-8.651 22.425-16.696h.001v-4.751h-.001c0-.034.002-.068.001-.102C60.283 8.397 46.745.58 30.096.551h-.095C13.399.55-.003 8.306.048 17.901" mask="url(#B)"/>
    </g>
    <path fill="#00B5D0" d="M101.1172 65.2486c12.891.023 23.373 6.074 23.413 13.518.034 6.262-7.341 11.514-17.364 13.006l1.743 3.806c12.944-1.927 22.47-8.71 22.426-16.801-.052-9.612-13.59-17.428-30.239-17.458-16.646-.03-30.1 7.738-30.048 17.35l6.804.012c-.04-7.443 10.377-13.456 23.265-13.433"/>
    <path fill="#1798B5" d="M71.0479 78.6695l6.805.012v4.749l-6.805-.013zM107.166 91.773v4.749l1.743 3.806v-4.749z"/>
    <path fill="#102263" d="M77.8542 78.6166l-.002 4.814c.009 1.494.438 2.931 1.222 4.275l5.975-1.144v-4.748c-.149-.254-.28-.513-.393-.777 1.836-4.266 8.511-7.415 16.482-7.4 7.372.012 13.665 2.726 16.058 6.514l5.92-1.227v-4.749c-3.276-5.189-11.897-8.908-21.998-8.926-12.852-.023-23.243 5.955-23.264 13.368z"/>
    <path fill="#41549C" d="M101.1182 65.2486c-12.889-.023-23.306 5.99-23.265 13.433.008 1.494.437 2.931 1.221 4.276l5.975-1.144c-.575-.982-.888-2.031-.894-3.121-.029-5.432 7.574-9.823 16.983-9.805 7.372.012 13.665 2.727 16.058 6.515l5.92-1.228c-3.276-5.19-11.897-8.908-21.998-8.926"/>
    <path fill="#102263" d="M79.0742 82.9576v4.748l5.975-1.144v-4.748zm38.1221-7.5547v4.748l5.92-1.227v-4.75z"/>
    <g transform="translate(136 2.769)">
      <mask id="D" fill="#fff">
        <use xlink:href="#C"/>
      </mask>
      <path fill="#A72649" d="M.816 13.128H.815v4.433l23.021 1.299-1.689 9.378v4.428c13.136.736 24.885-4.815 26.251-12.404.081-.45.124-.898.129-1.342h.001v-4.429h-.001C48.617 7.462 39.441 1.444 27.08.746 26.289.702 25.504.68 24.725.68 12.573.68 2.118 6.004.816 13.128" mask="url(#D)"/>
    </g>
    <g transform="translate(136 2.769)">
      <mask id="F" fill="#fff">
        <use xlink:href="#E"/>
      </mask>
      <path fill="#E5537B" d="M.815 13.133l23.81 1.343-2.478 13.762c13.136.736 24.886-4.816 26.251-12.404C49.764 8.243 40.221 1.487 27.08.746 26.289.702 25.504.68 24.725.68 12.571.68 2.113 6.006.815 13.133" mask="url(#F)"/>
    </g>
    <g transform="translate(135 13.769)">
      <mask id="H" fill="#fff">
        <use xlink:href="#G"/>
      </mask>
      <path fill="#531E5D" d="M.964.655c-.082.453-.124.902-.129 1.347H.833v4.472h.001c-.029 4.159 3.187 7.961 8.384 10.51L24.775 6.412V1.983L.967.64.964.655z" mask="url(#H)"/>
    </g>
    <g transform="translate(135 13.769)">
      <mask id="J" fill="#fff">
        <use xlink:href="#I"/>
      </mask>
      <path fill="#8B4298" d="M.964.655c-.846 4.696 2.483 9.07 8.254 11.9L24.775 1.983.967.64.964.655z" mask="url(#J)"/>
    </g>
    <g transform="translate(144 14.769)">
      <mask id="L" fill="#fff">
        <use xlink:href="#K"/>
      </mask>
      <path d="M.218 11.555v4.429L15.776 5.411V.983z" mask="url(#L)"/>
    </g>
    <path fill="#188A85" d="M158.8242 18.564v4.429l-2.477 13.761-.016-.001c-5.014-.283-9.503-1.442-13.064-3.188v-4.428l15.557-10.573z"/>
    <path fill="#31BCB6" d="M156.3311 32.3248l.017.001 2.476-13.762-15.556 10.573c3.56 1.747 8.049 2.906 13.063 3.188"/>
    <path fill="#188A85" d="M156.3311 32.3248l.017 4.43 2.476-13.762v-4.429z"/>
  </g>
</svg>
