<svg xmlns="http://www.w3.org/2000/svg" xmlns:xlink="http://www.w3.org/1999/xlink" width="403" height="306">
  <defs>
    <path id="a" d="M0 .4876335h27.3208v35.1024363H0z"/>
  </defs>
  <g fill="none" fill-rule="evenodd">
    <g transform="translate(0 163)">
      <mask id="b" fill="#fff">
        <use xlink:href="#a"/>
      </mask>
      <path fill="#41549C" d="M13.6598 33.7134c7.545-4.355 13.661-14.904 13.661-23.561 0-8.658-6.116-12.144-13.661-7.789-7.544 4.356-13.66 14.905-13.66 23.562 0 8.657 6.116 12.145 13.66 7.788z" mask="url(#b)" opacity=".1"/>
    </g>
    <path fill="#41549C" fill-opacity=".4963202" d="M12 195.364103c0 8.630784 6.0441419 12.108623 13.5004941 7.765313C32.9558581 198.787102 39 188.267835 39 179.63705c0-8.632778-6.0441419-12.109621-13.4995059-7.76631C18.0441419 176.214051 12 186.732321 12 195.364103"/>
    <path fill="#52185D" d="M28.9267592 211.514205l-.0070102.008084.0721057.036377c.0080118.008083.0220323.015157.0370544.02223l2.343437 1.355039.4666845.272827c2.4596074 1.303505 5.8035118 1.037751 9.4819068-1.105453C48.8760182 207.706758 55 197.042267 55 188.299689c0-4.345017-1.5112165-7.401685-3.9628121-8.837562-.0520764-.037387-.1171719-.066691-.1762585-.103068l-2.4085326-1.399499c-2.4816397-1.488421-5.9417145-1.296432-9.7733342.935694C31.1239818 183.298878 25 193.956295 25 202.705946c0 4.323797 1.4961944 7.364299 3.9267592 8.808259"/>
    <path fill="#8B4298" d="M30.1653673 191.459008c-.03953.078771-.0780718.158538-.1176018.237309C28.1434062 195.500231 27 199.610254 27 203.363317c0 8.632842 6.0441419 12.108712 13.4995059 7.766367C47.9548699 206.786341 54 196.267994 54 187.636149c0-8.631845-6.0451301-12.108713-13.5004941-7.76537-2.5230043 1.469717-4.8849237 3.646374-6.9049083 6.218877"/>
    <path fill="#41549C" fill-opacity=".22364697" d="M188.389399 28.5310582L74.6106005 94.5641417C72.616791 95.7221596 71 94.4929562 71 91.820993V73.403998c0-2.6729658 1.616791-5.7780577 3.6106005-6.9350729L188.389399.43584155C190.383209-.72217627 192 .50702705 192 3.17999286V21.5959853c0 2.6729658-1.616791 5.7780577-3.610601 6.9350729"/>
    <path fill="#41549C" fill-opacity=".2" d="M188.389399 65.5310749L74.6106005 131.564158C72.616791 132.722176 71 131.492973 71 128.820007v-18.415992c0-2.672966 1.616791-5.778058 3.6106005-6.935073L188.389399 37.4358583C190.383209 36.2778404 192 37.5070438 192 40.179007v18.416995c0 2.6729658-1.616791 5.7780577-3.610601 6.9350729"/>
    <path fill="#D4D9E9" d="M188.389399 102.531075L74.6106005 168.564158C72.616791 169.722176 71 168.492973 71 165.820007v-18.415992c0-2.672966 1.616791-5.778058 3.6106005-6.935073L188.389399 74.4358583C190.383209 73.2778404 192 74.5070438 192 77.179007v18.416995c0 2.6729658-1.616791 5.778058-3.610601 6.935073m0 37.000102L74.6106005 205.564159C72.616791 206.722175 71 205.492974 71 202.820012v-18.416967c0-2.671959 1.616791-5.778049 3.6106005-6.935062l113.7787985-66.031979c1.99381-1.158016 3.610601.070183 3.610601 2.743144v18.416967c0 2.672962-1.616791 5.778049-3.610601 6.935062m0 37L74.6106005 242.564159C72.616791 243.722175 71 242.492974 71 239.820012v-18.416967c0-2.672961 1.616791-5.778049 3.6106005-6.935062l113.7787985-66.031979c1.99381-1.158016 3.610601.070183 3.610601 2.743144v18.416967c0 2.672962-1.616791 5.778049-3.610601 6.935062"/>
    <path fill="#41549C" fill-opacity=".50036798" d="M196.389399 109.531177L82.6106005 175.564159C80.616791 176.722175 79 175.492974 79 172.820012v-18.416967c0-2.672961 1.616791-5.778049 3.6106005-6.935062L196.389399 81.4360038C198.384206 80.2779877 200 81.5061866 200 84.1791482v18.4169668c0 2.672962-1.615794 5.778049-3.610601 6.935062"/>
    <path fill="#8B4298" d="M91.6106303 179.564142C89.6158069 180.72216 88 179.492956 88 176.820993v-18.416995c0-2.672966 1.6158069-5.778058 3.6106303-6.935073L205.38937 85.4358415C207.384193 84.2778237 209 85.5070271 209 88.1799929v18.4159921c0 2.672966-1.615807 5.778058-3.61063 6.935073L91.6106303 179.564142z"/>
    <path fill="#FFF" d="M128.367958 141.833575l63.26309-36.972401C192.3876 104.418379 193 103.233902 193 102.21346s-.6124-1.489402-1.368952-1.046607l-63.26309 36.9724C127.6124 138.581042 127 139.76552 127 140.786968c0 1.020442.6124 1.488396 1.367958 1.046607m-27.999026 26.000164l63.262136-36.972173c.755547-.442793 1.368932-1.627263 1.368932-2.647698 0-1.020436-.613385-1.489394-1.368932-1.047607l-63.262136 36.973179C99.6133847 164.581227 99 165.765697 99 166.786132c0 1.020436.6133847 1.489394 1.368932 1.047607m.003664-10.000274l22.253811-12.970344c.758119-.441073 1.373593-1.627336 1.373593-2.648448 0-1.021113-.615474-1.490381-1.373593-1.048302l-22.253811 12.970345C99.6144761 154.578795 99 155.764051 99 156.78617c0 1.021113.6144761 1.489375 1.372596 1.047295m-60.6675556 44.947642c-.3992532.235504-.7985065.292596-1.1031736.114184l-4.1448662-2.41927c-.6093341-.354786-.6093341-1.515994 0-2.591565.6083385-1.074552 1.5970131-1.659744 2.2053516-1.302919l3.0426882 1.774947 5.6333541-9.948267c.6093342-1.075571 1.5960174-1.659743 2.2053516-1.303938.6083385.355805.6083385 1.514974 0 2.591565l-6.7365277 11.896528c-.3046671.537275-.7039203.953231-1.102178 1.188735"/>
    <path fill="#004680" d="M84.0091889 169.91453l-25.2616086 13.966797c-.475309.263156-.8060916.074074-.7389173-.423.0661565-.495125.5058429-1.110131.9811519-1.373288l25.2616086-13.966797c.4753091-.262182.8071094-.074073.7399351.423-.0671743.496099-.5068606 1.110132-.9821697 1.373288"/>
    <path fill="#D4D9E9" d="M305 91.08028285v43.94699995c0 2.589 1.576 5.6 3.517 6.721l10.976 6.336 5.505 10.518 5.504-4.162 10.976 6.337c1.941 1.121 3.517-.07 3.517-2.659v-43.947c0-2.588-1.576-5.599-3.517-6.72l-32.961-19.02999995c-1.941-1.12-3.517.07-3.517 2.659"/>
    <path fill="#41549C" fill-opacity=".49592391" d="M290 98.0798699v43.947c0 2.589 1.576 5.6 3.517 6.721l10.976 6.337 5.505 10.517 5.504-4.161 10.976 6.336c1.941 1.121 3.517-.07 3.517-2.658v-43.948c0-2.588-1.576-5.599-3.517-6.72l-32.961-19.02899998c-1.941-1.121-3.517.069-3.517 2.65799998"/>
    <path fill="#00B5D0" d="M291.415 161.0397076l.078.045 5.505 10.518 5.504-4.162 10.975 6.337c1.942 1.121 3.518-.07 3.518-2.659v-43.947c0-2.589-1.576-5.6-3.518-6.72l-32.96-19.03c-1.941-1.121-3.517.07-3.517 2.659v43.947c0 2.589 1.576 5.6 3.517 6.72l6.793 3.922"/>
    <path fill="#FFF" d="M301.715 142.9054072c-.86-.504-1.553-1.826-1.553-2.971 0-1.143.693-1.678 1.553-1.175.861.494 1.553 1.826 1.553 2.97 0 1.144-.692 1.669-1.553 1.176m-5.216-3.013c-.861-.493-1.553-1.826-1.553-2.969 0-1.145.692-1.669 1.553-1.176.861.493 1.553 1.826 1.553 2.971 0 1.143-.692 1.667-1.553 1.174m-5.216-3.011c-.86-.494-1.553-1.827-1.553-2.971 0-1.144.693-1.668 1.553-1.175.861.493 1.553 1.826 1.553 2.97 0 1.144-.692 1.669-1.553 1.176m9.393-8.848l-8.805-5.09c-4.345-2.508-7.871.157-7.871 5.95v2.54c0 5.793 3.526 12.521 7.871 15.03l9.11 5.257 3.893 2.256 3.674 2.111v-13.025c0-5.793-3.527-12.52-7.872-15.029"/>
    <path fill="#41549C" fill-opacity=".50028306" d="M335.4 268.7540437l61.077 35.4520003c.502.29.96.32 1.33.155l.002.013.062-.046c.1-.053.191-.121.275-.205l3.754-2.008-.004-.013c.471-.265.776-.877.776-1.768v-24.142c0-1.616-.983-3.493-2.195-4.193L225.194 170.25604371c-.557-.321-1.06-.326-1.447-.094l-.007-.01-.06.045c-.023.016-.045.033-.067.05l-3.953 2.174c-.01.008-.021.015-.031.022l-.034.026.005.005c-.37.31-.6.878-.6 1.654v24.14199999c0 1.615.983 3.493 2.194 4.193l98.07 56.925"/>
    <path fill="#D4D9E9" d="M219 173.923v24.141c0 1.617.983 3.493 2.195 4.193l97.697 56.709 15.361 8.917 62.224 36.118c1.213.7 2.194-.043 2.194-1.659V278.2c0-1.616-.981-3.493-2.194-4.193L221.195 172.264c-.31-.179-.605-.264-.872-.264-.778 0-1.323.719-1.323 1.923"/>
    <path fill="#41549C" fill-opacity=".51848392" d="M393.245 299.857829l-18.665-10.777c-1.977-1.141-3.58-4.204-3.58-6.84v-15.1040002c0-2.637 1.603-3.849 3.58-2.707l18.665 10.7760002c1.978 1.142 3.581 4.205 3.581 6.841v15.104c0 2.636-1.603 3.848-3.581 2.707"/>
    <path fill="#102263" d="M283.243 228.3866493l-53.112-30.665c-1.729-.998-3.131-3.675-3.131-5.98 0-2.305 1.402-3.364 3.131-2.366l53.112 30.664c1.729.998 3.13 3.676 3.13 5.981 0 2.304-1.401 3.364-3.13 2.366m28.968 16.352l-19.082-11.017c-1.728-.998-3.129-3.674-3.129-5.98 0-2.305 1.401-3.364 3.129-2.366l19.082 11.017c1.729.998 3.13 3.675 3.13 5.98 0 2.305-1.401 3.364-3.13 2.366"/>
    <path fill="#8B4298" d="M362 272.136v15.104c0 2.636 1.603 5.699 3.58 6.841l18.665 10.776c1.977 1.142 3.58-.07 3.58-2.707v-15.102c0-2.637-1.603-5.701-3.58-6.842l-18.665-10.777c-.505-.291-.985-.429-1.421-.429-1.27 0-2.159 1.173-2.159 3.136"/>
    <path fill="#FFF" d="M373.449522 290.378754c2.049 1.229 3.775.298 3.818-2.059.043-2.376-1.625-5.325-3.73-6.587-2.076-1.248-3.776-.343-3.845 1.886-.078 2.533 1.553 5.439 3.757 6.76m4.454 1.937c.415.712.823 1.412 1.229 2.112.693 1.194 1.114 1.915 1.802 3.112.488.85.288 1.627-.365 1.445-.336-.093-.613-.391-.85-.802-.618-1.069-.962-1.662-1.581-2.731-.471-.811-.942-1.624-1.427-2.459-1.516.334-3.166-.298-4.929-1.948-1.276-1.194-2.267-2.682-2.968-4.392-1.396-3.403-.986-6.589 1.141-7.46 1.931-.789 4.939.907 6.959 3.939 2.112 3.171 2.812 7.347.989 9.184"/>
  </g>
</svg>
